<?xml version="1.0" standalone="no"?>
<!DOCTYPE svg PUBLIC "-//W3C//DTD SVG 20010904//EN"
 "http://www.w3.org/TR/2001/REC-SVG-20010904/DTD/svg10.dtd">
<svg version="1.0" xmlns="http://www.w3.org/2000/svg"
 width="1280.000000pt" height="932.000000pt" viewBox="0 0 1280.000000 932.000000"
 preserveAspectRatio="xMidYMid meet">
<metadata>
Created by potrace 1.15, written by Peter Selinger 2001-2017
</metadata>
<g transform="translate(0.000000,932.000000) scale(0.100000,-0.100000)"
fill="#000000" stroke="none">
<path d="M7037 9145 c-32 -7 -72 -19 -90 -26 -18 -8 -38 -14 -45 -15 -7 -2
-33 -12 -58 -23 -24 -12 -48 -21 -54 -21 -5 0 -48 -18 -94 -40 -47 -22 -98
-42 -113 -46 -15 -4 -73 -26 -129 -49 -55 -23 -118 -48 -140 -55 -21 -7 -52
-18 -69 -26 -61 -27 -173 -66 -260 -91 -84 -23 -234 -86 -245 -103 -3 -4 -23
-17 -45 -28 -22 -11 -74 -49 -117 -85 -80 -67 -88 -71 -210 -107 -64 -19 -89
-22 -155 -16 -76 7 -247 53 -368 101 -33 12 -87 33 -120 45 -58 22 -85 33
-150 59 -97 40 -369 123 -475 144 -237 49 -423 47 -700 -4 -30 -6 -73 -13 -94
-15 -22 -3 -47 -9 -55 -14 -9 -4 -35 -10 -59 -14 -47 -6 -95 -18 -182 -44 -30
-9 -62 -17 -70 -18 -39 -4 -242 -68 -305 -96 -146 -64 -172 -78 -240 -128 -70
-51 -136 -104 -161 -127 -7 -7 -15 -13 -19 -13 -3 0 -31 -19 -62 -42 -30 -24
-63 -47 -72 -53 -9 -5 -18 -12 -21 -15 -3 -3 -23 -17 -45 -32 -22 -14 -65 -50
-95 -78 -30 -28 -72 -63 -92 -76 -21 -13 -38 -28 -38 -33 0 -5 -25 -37 -56
-72 -31 -34 -73 -88 -92 -118 -20 -31 -63 -94 -97 -141 -160 -222 -358 -668
-325 -731 13 -24 12 -29 -3 -29 -14 0 -37 -54 -37 -87 0 -12 -7 -28 -15 -37
-8 -8 -15 -19 -15 -25 0 -6 -8 -30 -19 -54 -36 -82 -44 -103 -68 -182 -81
-268 -87 -309 -74 -471 13 -153 33 -584 32 -668 -1 -33 4 -119 10 -190 6 -72
10 -216 10 -321 0 -197 -15 -320 -62 -510 -11 -44 -21 -89 -23 -100 -5 -23
-28 -118 -46 -185 -6 -25 -15 -61 -20 -80 -4 -19 -17 -71 -28 -115 -19 -73
-60 -271 -67 -320 -2 -11 -8 -60 -14 -109 -7 -49 -14 -93 -16 -96 -3 -4 -7
-70 -10 -146 l-6 -139 -49 -95 c-65 -127 -91 -228 -91 -354 -1 -85 -5 -107
-30 -167 -16 -37 -29 -72 -29 -78 0 -6 17 -4 42 5 22 8 43 12 45 10 2 -2 -14
-40 -36 -85 -23 -45 -38 -81 -33 -81 4 0 24 11 43 25 l34 26 7 -48 c10 -75 9
-212 -3 -282 -10 -63 -58 -217 -86 -276 -13 -28 -13 -29 3 -10 28 33 120 234
154 335 31 92 63 238 80 368 4 35 10 66 13 68 3 3 8 -57 12 -133 9 -160 0
-359 -25 -568 -12 -97 -12 -97 -1 -91 5 3 12 18 16 33 3 16 14 53 23 83 l16
55 7 -60 c4 -33 7 -98 8 -144 1 -84 13 -101 26 -36 9 49 46 335 44 348 -1 7 0
104 1 217 3 225 9 211 30 -70 7 -85 16 -168 20 -185 9 -33 8 -37 15 80 1 17 8
122 15 235 23 370 4 685 -50 825 -6 16 -9 50 -6 75 3 25 8 72 11 105 16 213
26 355 30 460 5 103 13 156 40 270 2 11 23 77 45 145 89 273 124 416 139 565
19 184 20 198 20 268 1 37 5 67 9 67 9 0 56 -99 92 -195 13 -33 26 -64 30 -70
4 -5 11 -21 15 -34 7 -25 93 -213 119 -263 9 -16 13 -47 11 -80 -2 -29 -11
-176 -20 -327 -8 -150 -17 -276 -19 -280 -2 -3 -9 -55 -15 -116 -6 -60 -18
-159 -26 -220 -9 -60 -29 -211 -45 -335 -17 -124 -37 -274 -45 -335 -16 -116
-28 -179 -71 -365 -14 -63 -32 -142 -40 -175 -56 -247 -165 -616 -290 -980
-84 -244 -114 -357 -114 -426 0 -63 24 -136 60 -186 26 -35 47 -48 138 -86
172 -73 330 -98 484 -78 180 24 208 40 208 121 0 28 5 50 12 52 8 3 1 37 -22
109 -28 86 -34 122 -36 209 -2 101 0 110 46 252 26 81 56 166 67 190 25 53 36
108 23 108 -18 0 -10 18 10 23 10 3 21 15 24 28 16 86 50 219 61 244 26 56
103 368 131 525 19 106 70 330 75 330 13 0 15 -33 5 -99 -7 -44 -6 -116 4
-235 19 -249 13 -1394 -8 -1476 -5 -19 -29 -78 -52 -130 -66 -148 -92 -230
-85 -271 9 -51 39 -95 69 -103 15 -4 52 -19 84 -34 54 -25 66 -27 222 -29 91
-2 182 -8 203 -14 22 -6 79 -10 128 -10 79 0 94 4 141 30 29 16 72 34 95 40
78 21 107 107 53 156 -11 10 -20 24 -20 31 0 8 -13 41 -30 75 -16 34 -34 84
-39 113 -5 29 -7 187 -4 361 2 171 1 344 -4 385 -5 41 -5 122 -2 180 4 58 4
107 -1 110 -5 3 -5 12 0 20 6 8 10 34 10 56 0 23 4 65 10 93 5 29 15 103 21
164 6 62 15 153 20 202 5 50 14 133 20 185 5 52 13 131 18 175 8 72 24 133 51
190 5 11 19 58 30 104 12 47 27 96 34 110 8 14 17 42 21 61 4 19 12 46 18 60
6 14 12 38 14 54 5 30 112 189 174 258 l34 37 108 -24 c337 -76 638 -75 1337
5 96 11 196 23 223 26 47 7 47 6 47 -22 -1 -80 -21 -667 -25 -724 -5 -70 -32
-302 -39 -336 -43 -209 -76 -320 -151 -504 -99 -242 -151 -331 -270 -464 -6
-6 -43 -48 -83 -92 -67 -75 -76 -82 -120 -88 -66 -9 -122 -44 -154 -96 -28
-46 -73 -203 -63 -220 3 -5 2 -25 -3 -44 -9 -29 -4 -46 32 -127 60 -136 92
-187 159 -252 132 -126 243 -177 426 -197 63 -7 120 -14 127 -17 27 -10 100
105 109 173 7 48 26 97 72 189 46 89 161 283 174 290 5 4 33 39 63 78 29 40
62 81 73 92 27 28 100 175 133 266 15 42 48 110 72 151 31 50 64 131 102 244
31 93 60 178 65 189 5 11 19 52 31 90 12 39 33 99 46 135 26 74 30 84 114 350
81 256 255 768 345 1015 32 87 71 211 79 247 4 15 17 35 29 43 21 14 145 51
393 118 l92 25 5 -40 c3 -22 3 -64 0 -93 -6 -54 11 -413 27 -590 5 -55 14
-208 20 -340 6 -132 13 -253 15 -270 15 -124 15 -498 1 -742 -19 -321 -21
-641 -4 -698 6 -23 11 -119 12 -225 1 -199 0 -205 -60 -346 -43 -103 -45 -150
-5 -188 30 -29 74 -57 131 -82 19 -9 49 -26 65 -39 59 -44 125 -62 270 -75
241 -21 310 -20 393 7 40 12 93 23 117 23 62 0 92 17 115 65 25 51 25 60 2 93
-10 15 -31 52 -46 82 -16 30 -37 64 -47 76 -10 11 -19 24 -19 28 0 4 -13 26
-28 49 -45 67 -103 185 -107 221 -2 17 -12 50 -21 72 -18 43 -21 157 -5 210 5
18 5 36 0 41 -5 5 -2 29 6 57 9 30 15 92 15 160 0 61 5 140 10 176 13 89 18
130 30 234 6 49 12 92 15 95 2 4 11 71 19 149 9 78 20 161 26 185 5 23 14 76
19 117 5 41 17 120 25 175 8 55 17 116 19 135 60 455 76 589 76 615 0 17 -2
15 -15 -7 -18 -35 -32 -36 -40 -3 -8 33 1 55 24 55 11 0 25 6 31 13 6 8 20 94
31 193 11 98 25 217 31 264 49 367 59 701 32 1025 -8 94 -15 188 -17 210 -1
22 4 63 11 90 7 28 15 64 18 80 10 58 58 240 65 248 4 4 40 -1 81 -13 104 -29
306 -77 357 -85 23 -4 42 -11 42 -16 0 -5 11 -9 25 -9 13 0 62 -9 107 -19 46
-11 118 -23 161 -27 43 -4 80 -11 83 -16 3 -4 9 -6 14 -3 5 3 39 -2 75 -11
l67 -17 21 25 c30 35 74 63 134 86 28 10 67 36 86 56 48 49 93 66 172 66 82 0
142 -23 220 -82 69 -53 204 -123 256 -132 24 -4 53 -23 95 -64 89 -87 144 -92
144 -12 0 20 -6 58 -14 84 -11 35 -12 56 -5 74 l10 26 20 -30 c52 -75 172
-338 218 -480 47 -142 135 -474 160 -604 12 -61 39 -291 46 -385 3 -33 6 -73
9 -90 2 -16 7 -79 11 -140 8 -134 13 -169 26 -217 7 -27 6 -50 -2 -80 -6 -24
-11 -65 -9 -93 1 -27 1 -70 0 -95 -4 -49 -4 -121 -1 -185 3 -77 -6 -362 -12
-372 -3 -5 0 -40 8 -77 13 -60 12 -72 -1 -107 -11 -26 -14 -52 -10 -77 9 -49
9 -78 1 -132 -5 -32 -3 -57 8 -82 14 -33 14 -42 -1 -87 l-16 -51 29 -30 29
-30 -17 -63 c-16 -60 -16 -63 3 -81 18 -18 18 -20 -3 -63 l-22 -45 33 -26 32
-27 -20 -33 -21 -33 23 -40 22 -39 -23 -24 -22 -24 24 -28 c23 -27 24 -31 11
-67 -13 -37 -13 -39 16 -65 l30 -27 -16 -47 c-15 -43 -15 -49 3 -90 19 -43 19
-43 -3 -75 -12 -18 -25 -48 -28 -68 -9 -46 -73 -112 -118 -120 -20 -4 -51 0
-78 9 -43 15 -45 14 -77 -10 -38 -29 -43 -64 -18 -134 24 -68 19 -93 -27 -150
-81 -100 -106 -171 -70 -202 14 -12 30 -14 87 -7 39 4 108 11 154 14 215 16
429 138 518 295 45 81 109 287 132 425 36 220 65 892 70 1614 1 151 4 277 6
281 2 3 7 49 10 101 6 100 31 418 41 534 3 39 5 204 4 368 l-1 298 38 -19 c21
-11 91 -41 156 -66 66 -26 126 -51 135 -56 10 -5 71 -28 137 -51 66 -22 183
-63 260 -90 155 -54 175 -57 198 -31 24 26 21 56 -8 107 -26 44 -42 53 -130
78 -27 8 -68 22 -90 32 -22 10 -74 30 -115 45 -166 62 -257 98 -305 123 -28
14 -76 33 -108 42 -31 9 -59 21 -62 26 -4 5 -14 9 -24 9 -9 0 -29 6 -44 13
-31 14 -44 50 -54 144 l-6 61 149 -60 c284 -114 646 -241 678 -236 11 2 27 15
35 30 14 24 13 30 -7 71 -30 59 -49 75 -117 92 -32 9 -88 29 -125 45 -38 17
-75 30 -83 30 -8 0 -44 13 -79 28 -34 16 -87 37 -117 47 -30 10 -80 30 -110
45 -31 15 -85 38 -121 50 -130 46 -127 44 -139 102 -5 29 -17 100 -26 158 -9
58 -21 123 -26 145 -23 102 -40 217 -34 235 4 11 2 20 -4 20 -11 0 -19 27 -46
160 -9 47 -28 132 -41 190 -13 58 -30 141 -39 185 -9 44 -23 107 -32 140 -8
33 -17 71 -19 85 -3 14 -12 57 -20 95 -9 39 -20 95 -26 125 -5 30 -13 64 -18
75 -8 17 -32 149 -32 172 0 5 -3 13 -8 18 -4 6 -11 26 -15 45 -4 19 -21 82
-37 140 -17 58 -36 128 -43 155 -7 28 -25 88 -39 135 -15 47 -36 114 -47 150
-23 73 -75 182 -100 208 -9 10 -21 34 -28 54 -6 19 -23 45 -36 58 -13 13 -22
27 -19 32 3 5 -39 101 -95 212 -56 112 -101 209 -101 217 0 7 -13 42 -29 78
-16 36 -41 95 -56 131 -14 36 -37 79 -49 95 -13 17 -31 45 -40 62 -24 48 -105
136 -140 153 -50 25 -124 39 -231 46 -55 3 -124 13 -153 21 -29 8 -67 16 -85
19 -17 2 -43 6 -57 9 -56 12 -78 15 -140 20 -36 3 -83 7 -105 10 -22 2 -107 7
-190 10 -82 4 -152 8 -156 11 -4 2 -12 -3 -19 -11 -16 -19 -30 -19 -30 0 0 18
-19 22 -130 30 -47 4 -130 13 -185 21 -55 7 -123 14 -152 14 -28 0 -80 7 -115
15 -35 8 -92 19 -128 24 -93 15 -96 16 -195 46 -121 37 -304 108 -395 155 -86
44 -165 71 -266 94 -86 19 -301 20 -387 1z"/>
</g>
</svg>
