<?xml version="1.0" standalone="no"?>
<!DOCTYPE svg PUBLIC "-//W3C//DTD SVG 20010904//EN"
 "http://www.w3.org/TR/2001/REC-SVG-20010904/DTD/svg10.dtd">
<svg version="1.0" xmlns="http://www.w3.org/2000/svg"
 width="1280.000000pt" height="1160.000000pt" viewBox="0 0 1280.000000 1160.000000"
 preserveAspectRatio="xMidYMid meet">
<metadata>
Created by potrace 1.15, written by Peter Selinger 2001-2017
</metadata>
<g transform="translate(0.000000,1160.000000) scale(0.100000,-0.100000)"
fill="#000000" stroke="none">
<path d="M7170 11591 c-133 -44 -249 -167 -302 -319 -19 -57 -23 -86 -22 -197
0 -133 10 -200 45 -315 28 -92 100 -233 160 -314 l51 -68 106 6 c656 42 976
144 1074 344 19 39 23 67 26 162 4 111 3 117 -25 170 -33 63 -95 111 -176 135
-59 18 -271 21 -363 5 -32 -6 -71 -12 -85 -15 -24 -4 -28 0 -33 30 -11 59 -94
211 -145 268 -68 74 -136 109 -220 113 -36 2 -77 0 -91 -5z"/>
<path d="M5525 9592 c-141 -49 -211 -162 -222 -359 l-6 -103 -52 0 c-122 0
-294 -68 -361 -143 -139 -153 -128 -438 22 -577 170 -157 527 -183 1049 -77
l60 12 22 115 c48 252 57 330 57 535 0 174 -3 211 -22 283 -36 138 -103 236
-190 281 -99 51 -262 66 -357 33z"/>
<path d="M8418 9126 c-51 -14 -63 -21 -121 -75 -117 -108 -134 -321 -43 -506
37 -76 139 -202 199 -248 47 -36 160 -52 317 -44 248 12 397 92 472 254 27 58
32 79 32 148 0 94 -14 143 -57 191 -51 59 -98 77 -212 82 -55 2 -118 -1 -140
-6 l-40 -9 -85 82 c-125 119 -220 158 -322 131z"/>
<path d="M6900 7170 c-201 -28 -359 -187 -426 -427 -22 -78 -30 -302 -14 -417
26 -195 90 -412 188 -630 l26 -59 201 7 c508 17 864 103 1114 271 90 61 208
183 259 270 36 62 42 82 53 172 29 246 -56 430 -244 524 -109 56 -192 71 -398
74 l-187 3 -58 47 c-70 55 -238 139 -309 154 -78 16 -145 20 -205 11z"/>
<path d="M6820 5316 c0 -3 87 -139 193 -303 106 -164 202 -311 212 -328 20
-30 20 -30 0 -15 -11 8 -128 114 -260 235 -132 121 -249 227 -259 235 -18 14
-19 13 -13 -2 3 -10 54 -205 112 -435 l106 -417 -27 -59 c-158 -354 -199 -889
-104 -1367 82 -408 258 -816 488 -1130 341 -464 809 -767 1404 -910 66 -16
124 -32 127 -37 4 -4 31 -105 59 -223 29 -118 68 -276 87 -350 l35 -135 -5
230 c-3 127 -8 285 -11 353 l-6 123 38 -7 c22 -5 66 -8 100 -8 l61 0 207 -363
c114 -200 209 -363 211 -363 3 0 -32 105 -76 233 -143 412 -179 520 -176 523
1 2 43 8 92 14 680 82 1253 288 1670 600 123 91 304 266 396 381 l69 86 77 21
c433 118 837 201 1106 228 37 4 67 8 67 10 0 3 -9 44 -19 92 -42 186 -81 450
-96 647 -3 44 -8 97 -11 117 l-6 38 -46 -27 c-421 -240 -774 -594 -1017 -1018
-31 -55 -59 -102 -61 -104 -1 -2 -34 2 -71 8 -438 75 -821 275 -1068 558 -233
266 -371 566 -464 1008 -11 52 -35 217 -46 320 -24 211 -117 440 -262 645 -91
128 -313 350 -423 422 -407 268 -868 317 -1438 154 l-114 -33 -77 32 c-42 18
-228 98 -414 179 -344 148 -347 149 -347 142z m1099 -736 c-18 -84 -7 -243 23
-326 47 -132 151 -258 290 -350 86 -57 249 -134 358 -169 47 -15 92 -29 100
-32 23 -9 -82 -31 -203 -43 -246 -25 -546 44 -656 151 -45 44 -113 151 -142
224 -19 50 -23 79 -24 170 0 107 1 112 37 187 39 82 104 159 178 214 25 18 46
31 48 30 1 -2 -3 -27 -9 -56z m1141 -1416 l35 -6 0 -121 c1 -111 4 -130 33
-217 116 -335 404 -693 737 -916 111 -73 203 -121 283 -144 23 -7 42 -16 42
-20 0 -10 -185 -95 -260 -118 -169 -54 -294 -72 -492 -72 -262 0 -530 46 -663
112 -418 210 -621 552 -576 971 14 127 44 262 73 324 49 104 196 188 378 214
56 8 346 3 410 -7z"/>
<path d="M5915 5220 c-82 -37 -279 -124 -437 -194 l-288 -127 -52 27 c-302
153 -742 165 -1143 30 -201 -68 -409 -200 -576 -366 -262 -261 -414 -545 -458
-860 -53 -374 -93 -561 -155 -734 -101 -279 -245 -506 -437 -691 -270 -261
-602 -402 -1055 -451 l-61 -6 -95 133 c-366 515 -657 811 -933 950 l-100 51
-7 -29 c-4 -15 -19 -116 -33 -223 -25 -187 -34 -249 -70 -513 -9 -65 -15 -120
-13 -121 16 -13 373 -102 563 -141 224 -46 595 -105 657 -105 10 0 77 -59 156
-138 272 -275 522 -457 852 -623 354 -177 694 -277 1188 -349 45 -7 82 -14 82
-16 0 -1 -11 -38 -24 -81 -24 -76 -49 -156 -142 -466 -25 -82 -44 -150 -42
-152 2 -2 92 151 201 338 l199 342 88 0 88 0 6 -165 c3 -91 10 -239 14 -330
l7 -165 64 320 c35 176 67 329 71 340 6 16 29 25 111 42 443 96 895 363 1266
747 292 302 489 651 598 1061 182 686 158 1265 -70 1631 l-47 74 40 93 c75
175 155 437 197 645 9 45 15 87 13 92 -2 5 -84 -66 -183 -157 -278 -255 -340
-309 -330 -293 5 8 107 156 228 328 120 173 217 315 215 316 -2 2 -70 -27
-153 -64z m-938 -648 c-83 -90 -111 -171 -111 -322 1 -114 30 -251 79 -372 14
-34 25 -65 25 -70 0 -18 -106 49 -166 105 -121 112 -192 258 -202 409 -4 80
-3 92 22 143 15 30 42 66 60 80 59 45 158 71 280 74 l59 1 -46 -48z m-762
-1797 c143 -30 270 -119 353 -247 106 -163 111 -426 13 -631 -39 -82 -116
-183 -183 -239 -153 -130 -411 -263 -633 -327 -146 -41 -187 -46 -375 -45
-155 0 -200 4 -275 23 -119 29 -209 63 -326 123 -93 48 -309 199 -309 216 0 5
105 25 233 46 127 21 245 41 262 44 29 5 0 15 -210 73 l-40 11 125 38 c186 55
333 121 452 201 79 54 96 82 117 196 45 232 129 368 279 446 143 75 360 105
517 72z"/>
</g>
</svg>
