<?xml version="1.0" standalone="no"?>
<!DOCTYPE svg PUBLIC "-//W3C//DTD SVG 20010904//EN"
 "http://www.w3.org/TR/2001/REC-SVG-20010904/DTD/svg10.dtd">
<svg version="1.0" xmlns="http://www.w3.org/2000/svg"
 width="796.000000pt" height="1280.000000pt" viewBox="0 0 796.000000 1280.000000"
 preserveAspectRatio="xMidYMid meet">
<metadata>
Created by potrace 1.15, written by Peter Selinger 2001-2017
</metadata>
<g transform="translate(0.000000,1280.000000) scale(0.100000,-0.100000)"
fill="#000000" stroke="none">
<path d="M2715 12569 c-38 -9 -115 -27 -170 -39 -272 -62 -500 -179 -673 -345
-191 -183 -303 -388 -332 -611 -34 -266 92 -546 318 -701 l52 -36 -69 -18
c-112 -29 -185 -73 -282 -172 -58 -59 -61 -61 -75 -42 -23 32 -33 81 -23 122
12 54 0 377 -17 439 -7 27 -28 70 -46 95 -122 168 -245 568 -266 866 l-7 98
-33 3 c-37 4 -65 -15 -88 -59 -7 -15 -34 -51 -59 -80 -142 -166 -273 -442
-323 -684 -13 -61 -17 -133 -16 -305 0 -193 3 -241 23 -339 59 -297 167 -518
292 -596 46 -29 89 -112 89 -170 0 -34 -7 -50 -43 -91 -43 -51 -71 -93 -145
-219 -22 -38 -52 -83 -66 -99 -14 -16 -26 -35 -26 -41 0 -7 -14 -42 -30 -78
-17 -35 -36 -93 -42 -127 -12 -63 -13 -64 -149 -207 -90 -94 -147 -162 -163
-196 -34 -68 -49 -195 -44 -354 4 -135 1 -142 -56 -127 -22 5 -26 3 -26 -14 0
-18 7 -21 47 -24 l48 -3 7 -50 c20 -125 43 -182 93 -229 21 -20 39 -50 48 -83
14 -45 14 -56 0 -95 -21 -60 -11 -174 27 -318 103 -390 122 -478 145 -670 13
-106 15 -187 10 -380 -7 -270 -2 -323 50 -556 2 -11 33 -64 69 -117 84 -125
89 -145 84 -282 -4 -111 -5 -113 -42 -163 -67 -91 -99 -190 -167 -512 -23
-107 -46 -216 -52 -243 -17 -73 2 -142 85 -307 40 -80 76 -156 81 -170 17 -55
37 -189 37 -253 0 -209 138 -597 254 -712 66 -66 122 -96 259 -141 92 -29 132
-37 223 -41 l111 -6 6 -206 c4 -127 13 -254 25 -331 11 -69 23 -179 27 -245 3
-66 17 -187 30 -270 13 -82 26 -173 28 -200 6 -54 39 -201 93 -410 18 -71 38
-175 43 -230 14 -130 52 -269 101 -367 51 -102 150 -247 222 -324 92 -98 263
-176 427 -194 107 -12 244 -43 274 -62 34 -23 102 -36 217 -43 125 -8 352 -47
470 -81 47 -13 129 -31 182 -39 57 -8 135 -29 190 -50 134 -53 155 -49 343 55
33 19 87 54 120 79 89 67 332 313 410 416 38 50 90 115 116 145 70 82 126 174
237 390 153 298 242 544 292 815 12 66 24 125 25 132 3 8 27 4 82 -12 188 -55
552 -112 793 -123 199 -10 330 -1 560 37 367 61 492 64 658 17 102 -29 216
-72 292 -111 27 -14 52 -25 55 -25 13 0 3 34 -19 63 -13 18 -48 77 -77 132
-39 71 -77 124 -136 186 -46 48 -107 125 -137 171 -158 242 -297 374 -502 476
-98 49 -159 69 -250 82 -40 5 -82 14 -95 19 -13 4 -109 27 -214 50 -547 120
-596 133 -732 196 -77 36 -208 122 -239 157 -18 20 -18 21 -1 15 41 -15 228
-66 297 -82 156 -34 593 -84 745 -85 438 -1 718 -104 1250 -455 29 -20 29 -20
21 0 -5 11 -37 99 -71 195 -89 247 -83 233 -185 470 -241 561 -455 956 -646
1196 -19 23 -43 68 -55 100 -28 75 -101 148 -236 237 -114 75 -256 194 -328
275 -66 73 -162 135 -375 240 -96 47 -208 105 -247 128 -141 83 -331 242 -415
347 -47 60 -49 76 -5 34 64 -60 203 -138 325 -182 137 -49 217 -66 362 -75
185 -13 260 -25 390 -61 127 -36 261 -99 354 -168 39 -28 72 -49 74 -47 7 7
-97 203 -155 291 -254 385 -668 745 -983 855 -36 12 -137 53 -225 90 -88 36
-232 95 -320 130 -174 68 -206 85 -123 64 141 -37 346 -35 468 5 87 28 208 48
365 61 150 12 158 10 392 -89 115 -48 200 -79 266 -95 26 -6 28 -5 22 16 -79
280 -316 495 -729 662 -44 18 -130 56 -191 83 -60 28 -187 80 -280 116 -94 36
-217 85 -273 110 -301 133 -550 435 -755 917 -24 58 -81 202 -127 320 -245
637 -384 902 -588 1122 l-44 47 16 49 c20 58 57 96 152 150 116 67 138 100
174 265 10 45 28 109 40 142 33 89 30 198 -9 345 -17 63 -33 142 -35 176 -6
67 -31 141 -72 206 -46 72 -154 320 -154 352 -1 101 -148 256 -244 256 -62 0
-110 -52 -135 -146 -6 -23 -18 -111 -26 -196 -16 -167 -27 -209 -100 -363 -26
-55 -56 -121 -66 -148 -38 -95 -89 -319 -89 -388 0 -41 -14 -56 -85 -91 -85
-43 -119 -50 -164 -38 -53 14 -108 62 -117 103 -3 17 -17 46 -30 62 -43 57
-59 143 -59 326 l0 166 52 104 c41 83 70 123 139 197 89 96 181 168 248 196
47 20 113 20 146 1 36 -21 40 -19 40 18 l0 33 -172 12 c-201 14 -338 15 -390
3 -21 -5 -38 -7 -38 -5 0 7 92 89 143 127 64 48 239 134 292 143 22 4 63 17
90 29 57 25 160 90 130 81 -141 -38 -208 -58 -232 -67 -47 -19 -212 -39 -323
-39 -176 -1 -298 -37 -438 -130 l-77 -51 65 66 c81 82 150 129 364 245 145 78
370 220 362 228 -2 1 -30 -2 -64 -6 -34 -5 -65 -6 -69 -2 -4 3 -39 -2 -78 -11z
m-2316 -4319 c11 -33 16 -58 11 -55 -8 5 -40 90 -40 107 0 21 10 3 29 -52z
m5766 -1293 c47 -19 117 -58 113 -63 -4 -4 -40 11 -158 63 -21 10 -22 12 -5
12 11 0 34 -6 50 -12z m-5392 -1652 c-15 -41 -28 -73 -31 -71 -7 8 43 146 53
146 2 0 -8 -34 -22 -75z m6037 -480 c18 -19 31 -37 29 -40 -3 -2 -23 13 -44
35 -22 22 -35 40 -29 40 6 0 25 -16 44 -35z"/>
</g>
</svg>
