<?xml version="1.0" standalone="no"?>
<!DOCTYPE svg PUBLIC "-//W3C//DTD SVG 20010904//EN"
 "http://www.w3.org/TR/2001/REC-SVG-20010904/DTD/svg10.dtd">
<svg version="1.0" xmlns="http://www.w3.org/2000/svg"
 width="1280.000000pt" height="640.000000pt" viewBox="0 0 1280.000000 640.000000"
 preserveAspectRatio="xMidYMid meet">
<metadata>
Created by potrace 1.15, written by Peter Selinger 2001-2017
</metadata>
<g transform="translate(0.000000,640.000000) scale(0.100000,-0.100000)"
fill="#000000" stroke="none">
<path d="M6365 6294 c-66 -8 -174 -23 -240 -35 -81 -14 -171 -22 -275 -24
-172 -3 -256 -17 -416 -70 -232 -77 -550 -271 -747 -455 -239 -223 -459 -619
-587 -1056 -120 -411 -178 -925 -152 -1357 14 -225 29 -333 82 -592 54 -267
69 -364 81 -543 11 -177 13 -185 35 -180 10 2 26 35 45 93 296 907 381 1291
411 1837 6 120 15 218 18 218 10 0 28 -65 41 -150 17 -108 5 -449 -21 -625
-23 -156 -49 -276 -79 -359 l-19 -56 20 -15 c20 -14 23 -11 70 68 79 135 129
293 161 517 31 213 39 298 67 770 37 624 72 861 161 1091 52 134 150 264 234
309 14 7 28 11 31 8 3 -3 -15 -74 -40 -156 -79 -264 -108 -472 -86 -632 22
-168 83 -375 218 -740 l76 -205 -1 -130 c0 -105 -5 -148 -26 -226 -33 -127
-77 -230 -137 -320 -53 -81 -174 -204 -238 -241 -34 -19 -41 -29 -46 -63 -18
-117 -25 -282 -26 -565 0 -476 -21 -689 -84 -868 l-25 -74 41 -56 c23 -32 72
-94 110 -140 l69 -82 -20 -56 c-13 -32 -21 -79 -21 -114 0 -51 4 -64 33 -101
63 -84 174 -114 330 -89 l82 12 -71 144 c-116 233 -171 426 -228 789 -37 239
-40 296 -22 413 39 259 161 481 401 730 169 176 372 333 586 455 57 32 58 30
66 -85 8 -106 -10 -205 -69 -385 l-50 -153 215 -367 214 -368 78 -235 c42
-129 83 -241 90 -249 7 -7 57 -41 111 -76 58 -36 106 -75 117 -92 9 -16 24
-73 31 -126 15 -95 27 -129 73 -199 l24 -36 127 -7 c70 -3 134 -7 142 -8 11
-2 14 7 11 33 -7 71 -43 159 -111 270 -121 196 -148 260 -164 381 -7 58 -21
119 -29 136 -9 16 -54 63 -101 102 -131 111 -198 200 -304 401 -81 154 -102
226 -102 350 0 173 45 291 239 633 134 235 209 390 250 512 32 96 61 242 61
307 0 31 5 41 23 49 20 9 39 3 128 -41 57 -29 174 -92 259 -140 362 -203 510
-272 643 -297 84 -16 257 -15 883 3 265 8 277 7 299 -49 41 -101 46 -162 55
-587 7 -375 10 -426 31 -525 22 -102 23 -128 19 -375 -8 -563 -7 -609 18 -671
39 -98 72 -134 186 -204 15 -9 14 -18 -9 -103 -45 -167 -29 -231 70 -281 45
-24 62 -26 193 -29 94 -3 147 0 156 7 11 9 -27 108 -190 509 -230 564 -230
562 -221 787 7 184 27 280 127 630 61 209 85 315 99 425 13 93 41 231 51 243
3 4 12 -28 19 -70 7 -43 32 -175 56 -293 24 -118 49 -251 56 -295 6 -44 24
-112 40 -151 15 -39 48 -135 74 -212 25 -78 59 -173 75 -212 26 -64 31 -93 50
-327 12 -141 26 -266 32 -277 6 -10 46 -57 90 -104 102 -108 138 -192 138
-323 l0 -50 58 -26 c87 -39 225 -70 344 -78 101 -6 107 -6 118 14 18 34 -15
82 -172 249 -107 114 -152 181 -233 347 -102 209 -163 397 -220 680 -49 244
-64 384 -75 690 -15 396 -31 745 -37 785 -4 32 -2 37 29 52 54 26 123 93 172
167 25 38 49 72 54 75 12 7 173 -160 293 -304 248 -297 432 -587 538 -845 l51
-124 0 -179 c0 -348 45 -476 259 -740 169 -209 200 -270 201 -396 0 -44 -7
-106 -16 -138 -16 -56 -16 -61 2 -100 25 -55 100 -130 160 -161 173 -87 359
-50 477 96 l33 42 -22 200 c-36 321 -48 529 -40 745 9 272 14 310 37 310 25 0
78 -74 105 -148 14 -35 28 -58 39 -61 16 -3 17 4 11 72 -8 88 -27 161 -96 362
-27 81 -50 153 -50 159 0 6 56 39 125 74 69 34 125 66 125 70 0 5 -6 16 -13
27 -13 16 -26 17 -140 13 l-126 -5 -51 52 -51 52 25 79 c25 77 32 128 20 157
-4 12 -18 11 -87 -9 -94 -28 -111 -29 -130 -10 -7 8 -33 70 -57 137 -61 175
-176 442 -285 664 -260 529 -552 971 -816 1235 -359 359 -801 622 -1247 741
-380 102 -562 91 -976 -55 -237 -84 -276 -91 -521 -90 -236 0 -302 11 -620 98
-88 25 -225 62 -305 84 -172 48 -319 77 -452 92 -132 14 -457 11 -603 -6z"/>
<path d="M3365 3720 c-3 -5 -34 -31 -67 -57 l-62 -47 -200 -1 c-243 -1 -262
-6 -396 -105 -72 -53 -112 -76 -165 -91 -38 -12 -78 -28 -89 -37 -10 -10 -50
-63 -88 -119 l-68 -103 -60 0 -60 0 7 -27 c3 -16 7 -67 7 -115 l1 -86 -39 -34
-38 -33 23 -47 23 -47 -50 -55 -49 -56 -90 5 c-96 5 -165 20 -363 78 -215 64
-373 71 -511 23 -42 -14 -46 -14 -72 5 -16 11 -66 68 -113 128 -46 59 -103
124 -125 144 l-42 37 -77 -5 c-320 -25 -338 -24 -486 35 -59 24 -103 37 -108
32 -21 -21 134 -283 206 -350 50 -46 101 -59 191 -47 30 3 55 4 55 0 0 -18
-23 -45 -38 -45 -32 0 -43 -14 -29 -34 13 -18 15 -17 53 2 37 19 68 26 107 23
13 -1 17 -10 17 -36 l0 -35 108 6 c60 4 125 4 145 0 l36 -7 -31 -64 c-57 -123
-59 -189 -13 -485 25 -158 6 -270 -58 -338 -30 -33 -101 -67 -178 -87 -89 -23
-147 -52 -163 -84 -8 -14 -46 -131 -86 -259 -75 -246 -112 -348 -179 -500 -45
-102 -49 -128 -25 -174 27 -52 28 -124 5 -223 -22 -92 -30 -193 -16 -215 12
-20 107 -60 143 -60 19 0 47 8 64 17 29 17 30 20 24 68 -4 28 -9 106 -13 175
-7 141 7 230 58 385 105 314 275 534 503 648 65 32 71 34 90 19 14 -10 36 -63
64 -151 54 -169 131 -377 184 -499 40 -91 42 -94 92 -116 58 -27 88 -56 140
-138 20 -31 52 -70 73 -85 32 -25 45 -28 107 -28 39 1 88 7 109 14 35 12 38
16 32 40 -11 45 -56 113 -122 183 -106 113 -251 351 -297 489 -72 216 -27 409
136 584 64 68 71 73 95 64 58 -22 274 -81 362 -100 113 -23 168 -24 307 -3
119 18 160 14 221 -22 23 -13 74 -35 113 -48 39 -14 86 -36 104 -50 22 -17 95
-126 213 -318 182 -298 192 -318 237 -468 31 -103 71 -170 126 -206 l40 -27
-5 -61 c-10 -102 24 -138 150 -158 l79 -13 33 -95 c55 -159 29 -142 207 -138
85 1 157 6 161 10 4 3 -11 31 -34 61 -110 149 -235 366 -329 573 -86 189 -108
246 -152 411 -61 222 -84 263 -237 430 -168 183 -183 212 -189 366 -2 63 -12
191 -23 283 -39 330 -39 458 0 523 l20 33 20 -26 c11 -14 42 -40 67 -58 75
-49 99 -76 163 -180 l61 -97 57 -6 c31 -4 64 -8 75 -9 13 -1 29 17 54 62 54
99 55 163 4 322 -22 69 -43 142 -46 162 -9 48 15 159 53 248 28 67 29 74 17
120 -7 28 -31 73 -55 104 -49 63 -51 48 35 182 30 46 54 86 54 89 0 12 -43 3
-110 -21 -39 -15 -73 -24 -76 -21 -3 3 -1 14 5 25 6 12 11 28 11 36 0 18 -15
21 -25 6z"/>
</g>
</svg>
